<?xml version="1.0" encoding="utf-8"?>
<!-- Generator: Adobe Illustrator 26.0.0, SVG Export Plug-In . SVG Version: 6.00 Build 0)  -->
<svg version="1.1" id="Capa_1" xmlns="http://www.w3.org/2000/svg" xmlns:xlink="http://www.w3.org/1999/xlink" x="0px" y="0px"
	 viewBox="0 0 256 256" style="enable-background:new 0 0 256 256;" xml:space="preserve">
<style type="text/css">
	.st0{fill:#F2F2F2;}
	.st1{fill:#7AC943;}
</style>
<path class="st0" d="M166.5,174L166.5,174c-32.9,0-59.5-26.6-59.5-59.5v0c0-32.9,26.6-59.5,59.5-59.5h0c32.9,0,59.5,26.6,59.5,59.5
	v0C226,147.4,199.4,174,166.5,174z"/>
<path class="st1" d="M125,125.1c8,0,15.3-1,22.4,0.2c11.3,1.9,19.9,8.6,25.9,18.3c1.3,2.1,2.4,2.7,5,2.3
	c25.3-4.2,47.9,14.8,48.1,40.2c0.1,21.8-17.9,40.4-39.7,40.6c-28.4,0.2-56.8,0.1-85.2,0.1c-17.2,0-34.5,0.1-51.7,0
	c-19.6-0.1-37.1-14.7-39.9-33c-3.3-21,7.4-39.5,26.8-46.3c2.2-0.8,4.5-1.6,6.8-1.6c3.5-0.1,4.2-1.7,4.4-4.8
	c0.9-15.9,8.7-27.4,22.7-34.5c18.7-9.5,41.7-2.5,52.6,15.4C123.8,123.1,124.6,124.4,125,125.1z"/>
</svg>
