<?xml version="1.0" encoding="utf-8"?>
<!-- Generator: Adobe Illustrator 28.0.0, SVG Export Plug-In . SVG Version: 6.00 Build 0)  -->
<svg version="1.1" id="Capa_1" xmlns="http://www.w3.org/2000/svg" xmlns:xlink="http://www.w3.org/1999/xlink" x="0px" y="0px"
	 viewBox="0 0 256 256" style="enable-background:new 0 0 256 256;" xml:space="preserve">
<style type="text/css">
	.st0{fill:#7AC943;}
	.st1{fill:#F2F2F2;}
</style>
<g>
	<path class="st0" d="M196.3,252.1H59.7c-31,0-55.8-24.8-55.8-55.8V59.7c0-31,24.8-55.8,55.8-55.8h136.5c31,0,55.8,24.8,55.8,55.8
		v136.5C252.1,227.3,227.3,252.1,196.3,252.1z"/>
	<g>
		<path class="st1" d="M61.3,97h-3.9c-9.3,0-16.3-7.8-16.3-16.3V76c0-9.3,7.8-16.3,16.3-16.3h3.9c9.3,0,16.3,7.8,16.3,16.3v3.9
			C78.4,89.2,70.6,97,61.3,97z"/>
		<path class="st1" d="M61.3,146.6h-3.9c-9.3,0-16.3-7.8-16.3-16.3v-3.9c0-9.3,7.8-16.3,16.3-16.3h3.9c9.3,0,16.3,7.8,16.3,16.3v3.9
			C78.4,138.9,70.6,146.6,61.3,146.6z"/>
		<path class="st1" d="M61.3,196.3h-3.9c-9.3,0-16.3-7.8-16.3-16.3v-3.9c0-9.3,7.8-16.3,16.3-16.3h3.9c9.3,0,16.3,7.8,16.3,16.3v3.9
			C78.4,189.3,70.6,196.3,61.3,196.3z"/>
		<g>
			<path class="st1" d="M198.6,97h-85.3C104.7,97,97,89.2,97,79.9V76c0-9.3,7.8-16.3,16.3-16.3h84.5c9.3,0,16.3,7.8,16.3,16.3v3.9
				C214.9,89.2,207.9,97,198.6,97z"/>
			<path class="st1" d="M198.6,146.6h-85.3c-9.3,0-16.3-7.8-16.3-16.3v-3.9c0-9.3,7.8-16.3,16.3-16.3h84.5c9.3,0,16.3,7.8,16.3,16.3
				v3.9C214.9,138.9,207.9,146.6,198.6,146.6z"/>
			<path class="st1" d="M198.6,196.3h-85.3c-9.3,0-16.3-7.8-16.3-16.3v-3.9c0-9.3,7.8-16.3,16.3-16.3h84.5c9.3,0,16.3,7.8,16.3,16.3
				v3.9C214.9,189.3,207.9,196.3,198.6,196.3z"/>
		</g>
	</g>
</g>
</svg>
